<?xml version="1.0" encoding="UTF-8"?>
<svg id="_レイヤー_1" data-name="レイヤー_1" xmlns="http://www.w3.org/2000/svg" version="1.1" viewBox="0 0 400 63.19">
  <!-- Generator: Adobe Illustrator 29.2.1, SVG Export Plug-In . SVG Version: 2.1.0 Build 116)  -->
  <defs>
    <style>
      .st0 {
        fill: #6d6657;
      }
    </style>
  </defs>
  <path class="st0" d="M42.15,28.71h5.77v5.77h-5.77v-5.77ZM42.15,35.76h5.77v5.77h-5.77v-5.77ZM42.15,42.81h5.77v5.77h-5.77v-5.77ZM49.21,21.66h5.77v5.77h-5.77v-5.77ZM49.21,28.71h5.77v5.77h-5.77v-5.77ZM49.21,35.76h5.77v5.77h-5.77v-5.77ZM49.21,42.81h5.77v5.77h-5.77v-5.77ZM49.21,49.86h5.77v5.77h-5.77v-5.77ZM56.26,21.66h5.77v5.77h-5.77v-5.77ZM56.26,49.86h5.77v5.77h-5.77v-5.77ZM63.31,21.66h5.77v5.77h-5.77v-5.77ZM63.31,49.86h5.77v5.77h-5.77v-5.77ZM70.36,21.66h5.77v5.77h-5.77v-5.77ZM70.36,28.71h5.77v5.77h-5.77v-5.77ZM70.36,35.76h5.77v5.77h-5.77v-5.77ZM70.36,42.81h5.77v5.77h-5.77v-5.77ZM70.36,49.86h5.77v5.77h-5.77v-5.77ZM6.59,7.56h5.77v5.77h-5.77v-5.77ZM13.64,7.56h5.77v5.77h-5.77v-5.77ZM20.69,7.56h5.77v5.77h-5.77v-5.77ZM20.69,14.61h5.77v5.77h-5.77v-5.77ZM20.69,21.66h5.77v5.77h-5.77v-5.77ZM20.69,28.71h5.77v5.77h-5.77v-5.77ZM20.69,35.76h5.77v5.77h-5.77v-5.77ZM20.69,42.81h5.77v5.77h-5.77v-5.77ZM20.69,49.86h5.77v5.77h-5.77v-5.77ZM27.75,7.56h5.77v5.77h-5.77v-5.77ZM27.75,14.61h5.77v5.77h-5.77v-5.77ZM27.75,21.66h5.77v5.77h-5.77v-5.77ZM27.75,28.71h5.77v5.77h-5.77v-5.77ZM27.75,35.76h5.77v5.77h-5.77v-5.77ZM27.75,42.81h5.77v5.77h-5.77v-5.77ZM27.75,49.86h5.77v5.77h-5.77v-5.77ZM34.8,7.56h5.77v5.77h-5.77v-5.77ZM41.85,7.56h5.77v5.77h-5.77v-5.77ZM77.41,21.66h5.77v5.77h-5.77v-5.77ZM77.41,28.71h5.77v5.77h-5.77v-5.77ZM77.41,35.76h5.77v5.77h-5.77v-5.77ZM77.41,42.81h5.77v5.77h-5.77v-5.77ZM77.41,49.86h5.77v5.77h-5.77v-5.77ZM91.51,21.66h5.77v5.77h-5.77v-5.77ZM91.51,28.71h5.77v5.77h-5.77v-5.77ZM91.51,35.76h5.77v5.77h-5.77v-5.77ZM91.51,42.81h5.77v5.77h-5.77v-5.77ZM91.51,49.86h5.77v5.77h-5.77v-5.77ZM98.56,21.66h5.77v5.77h-5.77v-5.77ZM98.56,28.71h5.77v5.77h-5.77v-5.77ZM98.56,35.76h5.77v5.77h-5.77v-5.77ZM98.56,42.81h5.77v5.77h-5.77v-5.77ZM98.56,49.86h5.77v5.77h-5.77v-5.77ZM105.61,21.66h5.77v5.77h-5.77v-5.77ZM112.66,21.66h5.77v5.77h-5.77v-5.77ZM112.66,28.71h5.77v5.77h-5.77v-5.77ZM112.66,35.76h5.77v5.77h-5.77v-5.77ZM112.66,42.81h5.77v5.77h-5.77v-5.77ZM112.66,49.86h5.77v5.77h-5.77v-5.77ZM119.71,21.66h5.77v5.77h-5.77v-5.77ZM119.71,28.71h5.77v5.77h-5.77v-5.77ZM119.71,35.76h5.77v5.77h-5.77v-5.77ZM119.71,42.81h5.77v5.77h-5.77v-5.77ZM119.71,49.86h5.77v5.77h-5.77v-5.77ZM126.76,21.66h5.77v5.77h-5.77v-5.77ZM133.81,21.66h5.77v5.77h-5.77v-5.77ZM133.81,28.71h5.77v5.77h-5.77v-5.77ZM133.81,35.76h5.77v5.77h-5.77v-5.77ZM133.81,42.81h5.77v5.77h-5.77v-5.77ZM133.81,49.86h5.77v5.77h-5.77v-5.77ZM140.86,28.71h5.77v5.77h-5.77v-5.77ZM140.86,35.76h5.77v5.77h-5.77v-5.77ZM140.86,42.81h5.77v5.77h-5.77v-5.77ZM140.86,49.86h5.77v5.77h-5.77v-5.77ZM204.32,7.56h5.77v5.77h-5.77v-5.77ZM204.32,14.61h5.77v5.77h-5.77v-5.77ZM204.32,21.66h5.77v5.77h-5.77v-5.77ZM204.32,28.71h5.77v5.77h-5.77v-5.77ZM204.32,35.76h5.77v5.77h-5.77v-5.77ZM204.32,42.81h5.77v5.77h-5.77v-5.77ZM204.32,49.86h5.77v5.77h-5.77v-5.77ZM211.37,7.56h5.77v5.77h-5.77v-5.77ZM211.37,14.61h5.77v5.77h-5.77v-5.77ZM211.37,21.66h5.77v5.77h-5.77v-5.77ZM211.37,28.71h5.77v5.77h-5.77v-5.77ZM211.37,35.76h5.77v5.77h-5.77v-5.77ZM211.37,42.81h5.77v5.77h-5.77v-5.77ZM211.37,49.86h5.77v5.77h-5.77v-5.77ZM218.42,7.56h5.77v5.77h-5.77v-5.77ZM218.42,28.71h5.77v5.77h-5.77v-5.77ZM218.42,49.86h5.77v5.77h-5.77v-5.77ZM225.47,7.56h5.77v5.77h-5.77v-5.77ZM225.47,28.71h5.77v5.77h-5.77v-5.77ZM225.47,49.86h5.77v5.77h-5.77v-5.77ZM303.03,28.71h5.77v5.77h-5.77v-5.77ZM303.03,35.76h5.77v5.77h-5.77v-5.77ZM303.03,49.86h5.77v5.77h-5.77v-5.77ZM310.08,21.66h5.77v5.77h-5.77v-5.77ZM310.08,28.71h5.77v5.77h-5.77v-5.77ZM310.08,35.76h5.77v5.77h-5.77v-5.77ZM310.08,49.86h5.77v5.77h-5.77v-5.77ZM317.13,21.66h5.77v5.77h-5.77v-5.77ZM317.13,35.76h5.77v5.77h-5.77v-5.77ZM317.13,49.86h5.77v5.77h-5.77v-5.77ZM352.39,28.71h5.77v5.77h-5.77v-5.77ZM352.39,35.76h5.77v5.77h-5.77v-5.77ZM352.39,42.81h5.77v5.77h-5.77v-5.77ZM359.44,21.66h5.77v5.77h-5.77v-5.77ZM359.44,28.71h5.77v5.77h-5.77v-5.77ZM359.44,35.76h5.77v5.77h-5.77v-5.77ZM359.44,42.81h5.77v5.77h-5.77v-5.77ZM359.44,49.86h5.77v5.77h-5.77v-5.77ZM366.49,21.66h5.77v5.77h-5.77v-5.77ZM366.49,35.76h5.77v5.77h-5.77v-5.77ZM366.49,49.86h5.77v5.77h-5.77v-5.77ZM373.54,21.66h5.77v5.77h-5.77v-5.77ZM373.54,35.76h5.77v5.77h-5.77v-5.77ZM373.54,49.86h5.77v5.77h-5.77v-5.77ZM380.59,21.66h5.77v5.77h-5.77v-5.77ZM380.59,28.71h5.77v5.77h-5.77v-5.77ZM380.59,35.76h5.77v5.77h-5.77v-5.77ZM380.59,49.86h5.77v5.77h-5.77v-5.77ZM387.64,28.71h5.77v5.77h-5.77v-5.77ZM387.64,35.76h5.77v5.77h-5.77v-5.77ZM387.64,49.86h5.77v5.77h-5.77v-5.77ZM324.18,21.66h5.77v5.77h-5.77v-5.77ZM324.18,35.76h5.77v5.77h-5.77v-5.77ZM324.18,49.86h5.77v5.77h-5.77v-5.77ZM331.23,21.66h5.77v5.77h-5.77v-5.77ZM331.23,35.76h5.77v5.77h-5.77v-5.77ZM331.23,42.81h5.77v5.77h-5.77v-5.77ZM331.23,49.86h5.77v5.77h-5.77v-5.77ZM338.28,21.66h5.77v5.77h-5.77v-5.77ZM338.28,35.76h5.77v5.77h-5.77v-5.77ZM338.28,42.81h5.77v5.77h-5.77v-5.77ZM253.68,28.71h5.77v5.77h-5.77v-5.77ZM253.68,35.76h5.77v5.77h-5.77v-5.77ZM253.68,42.81h5.77v5.77h-5.77v-5.77ZM260.73,21.66h5.77v5.77h-5.77v-5.77ZM260.73,28.71h5.77v5.77h-5.77v-5.77ZM260.73,35.76h5.77v5.77h-5.77v-5.77ZM260.73,42.81h5.77v5.77h-5.77v-5.77ZM260.73,49.86h5.77v5.77h-5.77v-5.77ZM267.78,21.66h5.77v5.77h-5.77v-5.77ZM267.78,49.86h5.77v5.77h-5.77v-5.77ZM274.83,21.66h5.77v5.77h-5.77v-5.77ZM274.83,49.86h5.77v5.77h-5.77v-5.77ZM281.88,21.66h5.77v5.77h-5.77v-5.77ZM281.88,28.71h5.77v5.77h-5.77v-5.77ZM281.88,35.76h5.77v5.77h-5.77v-5.77ZM281.88,42.81h5.77v5.77h-5.77v-5.77ZM281.88,49.86h5.77v5.77h-5.77v-5.77ZM288.93,21.66h5.77v5.77h-5.77v-5.77ZM288.93,28.71h5.77v5.77h-5.77v-5.77ZM288.93,35.76h5.77v5.77h-5.77v-5.77ZM288.93,42.81h5.77v5.77h-5.77v-5.77ZM288.93,49.86h5.77v5.77h-5.77v-5.77ZM232.52,7.56h5.77v5.77h-5.77v-5.77ZM232.52,14.61h5.77v5.77h-5.77v-5.77ZM232.52,21.66h5.77v5.77h-5.77v-5.77ZM232.52,28.71h5.77v5.77h-5.77v-5.77ZM232.52,35.76h5.77v5.77h-5.77v-5.77ZM232.52,42.81h5.77v5.77h-5.77v-5.77ZM232.52,49.86h5.77v5.77h-5.77v-5.77ZM239.57,14.61h5.77v5.77h-5.77v-5.77ZM239.57,21.66h5.77v5.77h-5.77v-5.77ZM239.57,35.76h5.77v5.77h-5.77v-5.77ZM239.57,42.81h5.77v5.77h-5.77v-5.77ZM154.97,28.71h5.77v5.77h-5.77v-5.77ZM154.97,35.76h5.77v5.77h-5.77v-5.77ZM154.97,42.81h5.77v5.77h-5.77v-5.77ZM162.02,21.66h5.77v5.77h-5.77v-5.77ZM162.02,28.71h5.77v5.77h-5.77v-5.77ZM162.02,35.76h5.77v5.77h-5.77v-5.77ZM162.02,42.81h5.77v5.77h-5.77v-5.77ZM162.02,49.86h5.77v5.77h-5.77v-5.77ZM169.07,21.66h5.77v5.77h-5.77v-5.77ZM169.07,49.86h5.77v5.77h-5.77v-5.77ZM176.12,21.66h5.77v5.77h-5.77v-5.77ZM176.12,49.86h5.77v5.77h-5.77v-5.77ZM183.17,21.66h5.77v5.77h-5.77v-5.77ZM183.17,28.71h5.77v5.77h-5.77v-5.77ZM183.17,35.76h5.77v5.77h-5.77v-5.77ZM183.17,42.81h5.77v5.77h-5.77v-5.77ZM183.17,49.86h5.77v5.77h-5.77v-5.77ZM190.22,21.66h5.77v5.77h-5.77v-5.77ZM190.22,28.71h5.77v5.77h-5.77v-5.77ZM190.22,35.76h5.77v5.77h-5.77v-5.77ZM190.22,42.81h5.77v5.77h-5.77v-5.77ZM190.22,49.86h5.77v5.77h-5.77v-5.77Z"/>
</svg>